<svg width="73" height="55" viewBox="0 0 73 55" fill="none" xmlns="http://www.w3.org/2000/svg">
<path d="M36.5 0L39.0843 8.32813C40.6628 13.4151 41.4521 15.9586 42.9194 17.9712C44.217 19.751 45.8907 21.2233 47.8215 22.2833C50.0047 23.4818 52.6281 23.9403 57.8749 24.8571L73 27.5L57.8749 30.1429C52.6281 31.0598 50.0047 31.5182 47.8215 32.7167C45.8907 33.7767 44.217 35.249 42.9194 37.0288C41.4521 39.0414 40.6628 41.5849 39.0843 46.6719L36.5 55L33.9157 46.6719C32.3372 41.5849 31.5479 39.0414 30.0806 37.0288C28.783 35.249 27.1093 33.7767 25.1785 32.7167C22.9953 31.5182 20.3719 31.0598 15.1251 30.1429L0 27.5L15.1251 24.8571C20.3719 23.9403 22.9953 23.4818 25.1785 22.2833C27.1093 21.2233 28.783 19.751 30.0806 17.9712C31.5479 15.9586 32.3372 13.4151 33.9157 8.32813L36.5 0Z" fill="black"/>
</svg>
