<svg width="53" height="50" viewBox="0 0 53 50" fill="none" xmlns="http://www.w3.org/2000/svg">
<path d="M26.5 50C26.2204 50.0003 25.9434 49.9433 25.6851 49.8322C25.4268 49.7212 25.1921 49.5583 24.9947 49.3529L4.66933 28.2706C-1.55644 21.8129 -1.55644 11.3049 4.66933 4.84724C10.6481 -1.35864 20.2316 -1.6082 26.5 4.11402C32.7641 -1.60158 42.3476 -1.36085 48.3307 4.84724C54.5564 11.3049 54.5564 21.8151 48.3307 28.2706L28.0053 49.3529C27.8079 49.5583 27.5732 49.7212 27.3149 49.8322C27.0566 49.9433 26.7796 50.0003 26.5 50ZM15.9626 4.41658C14.4246 4.41379 12.9012 4.72606 11.4799 5.33548C10.0585 5.9449 8.76721 6.83947 7.68002 7.96785C5.48657 10.2472 4.25465 13.3362 4.25465 16.5567C4.25465 19.7772 5.48657 22.8662 7.68002 25.1456L26.5 44.6665L45.32 25.1456C47.5134 22.8662 48.7453 19.7772 48.7453 16.5567C48.7453 13.3362 47.5134 10.2472 45.32 7.96785C43.1225 5.69271 40.1444 4.41491 37.0395 4.41491C33.9346 4.41491 30.9566 5.69271 28.7591 7.96785L28.0053 8.74966C27.8078 8.95493 27.5731 9.11778 27.3148 9.22889C27.0565 9.34 26.7796 9.39719 26.5 9.39719C26.2204 9.39719 25.9435 9.34 25.6852 9.22889C25.4269 9.11778 25.1922 8.95493 24.9947 8.74966L24.2409 7.96785C23.1546 6.83951 21.864 5.94492 20.4434 5.33548C19.0227 4.72604 17.5 4.41376 15.9626 4.41658Z" fill="black"/>
</svg>
