<svg width="54" height="50" viewBox="0 0 54 50" fill="none" xmlns="http://www.w3.org/2000/svg">
<path d="M27 50C26.7151 50.0003 26.4329 49.9433 26.1697 49.8322C25.9065 49.7212 25.6674 49.5583 25.4663 49.3529L4.75743 28.2706C-1.58581 21.8129 -1.58581 11.3049 4.75743 4.84724C10.849 -1.35864 20.6134 -1.6082 27 4.11402C33.3823 -1.60158 43.1466 -1.36085 49.2426 4.84724C55.5858 11.3049 55.5858 21.8151 49.2426 28.2706L28.5337 49.3529C28.3326 49.5583 28.0935 49.7212 27.8303 49.8322C27.5671 49.9433 27.2849 50.0003 27 50ZM16.2638 4.41658C14.6968 4.41379 13.1446 4.72606 11.6965 5.33548C10.2483 5.9449 8.93263 6.83947 7.82492 7.96785C5.59009 10.2472 4.33493 13.3362 4.33493 16.5567C4.33493 19.7772 5.59009 22.8662 7.82492 25.1456L27 44.6665L46.1751 25.1456C48.4099 22.8662 49.6651 19.7772 49.6651 16.5567C49.6651 13.3362 48.4099 10.2472 46.1751 7.96785C43.9361 5.69271 40.9019 4.41491 37.7384 4.41491C34.5749 4.41491 31.5407 5.69271 29.3017 7.96785L28.5337 8.74966C28.3325 8.95493 28.0934 9.11778 27.8302 9.22889C27.567 9.34 27.2849 9.39719 27 9.39719C26.7151 9.39719 26.433 9.34 26.1698 9.22889C25.9066 9.11778 25.6675 8.95493 25.4663 8.74966L24.6983 7.96785C23.5915 6.83951 22.2766 5.94492 20.8291 5.33548C19.3816 4.72604 17.8301 4.41376 16.2638 4.41658Z" fill="black"/>
</svg>
